<svg width="206" height="48" viewBox="0 0 206 48" fill="none" xmlns="http://www.w3.org/2000/svg">
<path fill-rule="evenodd" clip-rule="evenodd" d="M39.1614 38.7795C36.43 41.5109 33.1273 43.3298 29.6371 44.2331C22.5799 46.1923 14.6992 44.3977 9.15076 38.8492C0.949748 30.6482 0.949747 17.3518 9.15076 9.15076C14.6994 3.60207 22.5807 1.80755 29.6381 3.76719C33.1274 4.67043 36.4297 6.4888 39.1614 9.22052C47.3239 17.383 47.3239 30.617 39.1614 38.7795ZM33.9008 26.2302C37.8595 22.2715 38.9047 16.5025 37.0363 11.588C43.7558 18.6389 43.653 29.8028 36.7279 36.7279C34.4551 39.0008 31.7256 40.5388 28.8348 41.3418C28.5943 41.4033 28.3528 41.4597 28.1104 41.5111C27.5354 41.6329 26.8029 41.1711 26.8068 40.2296L26.8435 31.4242C26.8465 30.7104 27.4312 29.9172 28.4712 29.5755C30.4579 28.9227 32.3247 27.8063 33.9008 26.2302ZM23.8069 40.2171C23.8043 40.8353 23.9348 41.4433 24.1749 41.9992C19.5102 42.0442 14.8313 40.2871 11.2721 36.7279C4.24264 29.6985 4.24264 18.3015 11.2721 11.2721C15.3503 7.19386 20.8986 5.48167 26.2112 6.13551C26.331 6.18431 26.4591 6.21829 26.5937 6.23493C27.147 6.3034 27.6977 6.39766 28.2439 6.51771C29.5284 7.04277 30.7333 7.82697 31.7795 8.87321C34.4253 11.519 35.4072 15.1985 34.7253 18.6116C34.1639 17.4945 33.4172 16.4468 32.4853 15.5148C27.799 10.8285 20.201 10.8285 15.5147 15.5148C10.8284 20.2011 10.8284 27.7991 15.5147 32.4854C17.8136 34.7843 20.8142 35.9548 23.8244 35.9988L23.8069 40.2171ZM23.8369 32.9987C21.5863 32.9584 19.3516 32.0796 17.636 30.3641C14.1213 26.8494 14.1213 21.1509 17.636 17.6362C21.1508 14.1214 26.8492 14.1214 30.364 17.6362C31.809 19.0812 32.6593 20.8926 32.9164 22.7722C32.5796 23.2404 32.2006 23.6877 31.7795 24.1089C30.5433 25.3451 29.085 26.216 27.5348 26.7254C25.6492 27.345 23.8534 29.0459 23.8435 31.4117L23.8369 32.9987Z" fill="#EDEDED"/>
<path d="M87.52 31.264L92.416 13.312H95.648L89.184 36H85.952L80.032 17.6L74.176 36H71.04L64.48 13.312H67.712L72.704 31.072L78.4 13.312H81.696L87.52 31.264ZM106.26 20.448V23.648C105.812 23.584 105.364 23.552 104.948 23.552C102.42 23.552 100.724 24.896 100.724 28.288V36H97.7163V20.608H100.66V23.296C101.78 20.928 103.7 20.352 105.268 20.352C105.684 20.352 106.1 20.416 106.26 20.448ZM108.506 31.872C108.506 29.12 110.522 27.584 113.178 27.2L117.338 26.592C118.266 26.464 118.522 25.984 118.522 25.44C118.522 23.936 117.53 22.688 115.194 22.688C113.082 22.688 111.898 24 111.706 25.792L108.826 25.12C109.146 22.176 111.802 20.128 115.13 20.128C119.738 20.128 121.53 22.752 121.53 25.76V33.472C121.53 34.816 121.658 35.616 121.722 36H118.778C118.714 35.616 118.618 35.04 118.618 33.92C117.946 35.008 116.41 36.48 113.658 36.48C110.522 36.48 108.506 34.304 108.506 31.872ZM114.074 33.952C116.538 33.952 118.522 32.768 118.522 29.408V28.704L113.818 29.408C112.538 29.6 111.578 30.336 111.578 31.712C111.578 32.864 112.538 33.952 114.074 33.952ZM129.192 42.08H126.216V20.608H129.128V23.008C129.96 21.472 131.784 20.256 134.28 20.256C138.888 20.256 141.352 23.808 141.352 28.288C141.352 32.864 138.696 36.416 134.184 36.416C131.816 36.416 130.024 35.296 129.192 33.92V42.08ZM138.28 28.288C138.28 25.216 136.552 22.912 133.736 22.912C130.984 22.912 129.16 25.216 129.16 28.288C129.16 31.456 130.984 33.728 133.736 33.728C136.52 33.728 138.28 31.456 138.28 28.288ZM148.161 42.08H145.185V20.608H148.097V23.008C148.929 21.472 150.753 20.256 153.249 20.256C157.857 20.256 160.321 23.808 160.321 28.288C160.321 32.864 157.665 36.416 153.153 36.416C150.785 36.416 148.993 35.296 148.161 33.92V42.08ZM157.249 28.288C157.249 25.216 155.521 22.912 152.705 22.912C149.953 22.912 148.129 25.216 148.129 28.288C148.129 31.456 149.953 33.728 152.705 33.728C155.489 33.728 157.249 31.456 157.249 28.288ZM166.106 26.72H174.522C174.458 24.512 173.018 22.784 170.298 22.784C167.77 22.784 166.234 24.736 166.106 26.72ZM174.97 30.72L177.562 31.616C176.698 34.336 174.234 36.48 170.65 36.48C166.522 36.48 162.906 33.472 162.906 28.256C162.906 23.424 166.394 20.128 170.266 20.128C175.002 20.128 177.658 23.392 177.658 28.192C177.658 28.576 177.626 28.96 177.594 29.152H166.01C166.074 31.904 168.058 33.824 170.65 33.824C173.146 33.824 174.394 32.448 174.97 30.72ZM190.042 20.448V23.648C189.594 23.584 189.146 23.552 188.73 23.552C186.202 23.552 184.506 24.896 184.506 28.288V36H181.498V20.608H184.442V23.296C185.562 20.928 187.482 20.352 189.05 20.352C189.466 20.352 189.882 20.416 190.042 20.448ZM191.808 32L194.528 31.04C194.72 32.64 195.936 33.92 198.112 33.92C199.808 33.92 200.736 32.96 200.736 31.872C200.736 30.912 200.032 30.176 198.752 29.888L196.128 29.312C193.728 28.8 192.288 27.168 192.288 24.992C192.288 22.368 194.752 20.128 197.76 20.128C201.984 20.128 203.296 22.88 203.616 24.256L200.96 25.248C200.832 24.448 200.192 22.688 197.76 22.688C196.224 22.688 195.2 23.68 195.2 24.736C195.2 25.664 195.776 26.336 196.96 26.592L199.456 27.136C202.24 27.744 203.712 29.44 203.712 31.712C203.712 33.888 201.888 36.48 198.08 36.48C193.856 36.48 192.064 33.76 191.808 32Z" fill="#EDEDED"/>
</svg>
