<svg width="64" height="65" viewBox="0 0 64 65" fill="none" xmlns="http://www.w3.org/2000/svg">
<rect x="0.5" y="1" width="63" height="63" rx="11.5" fill="#171717"/>
<rect x="0.5" y="1" width="63" height="63" rx="11.5" stroke="#242424"/>
<path fill-rule="evenodd" clip-rule="evenodd" d="M47.1614 47.2795C44.43 50.0109 41.1273 51.8298 37.6371 52.7331C30.5799 54.6923 22.6992 52.8977 17.1508 47.3492C8.94975 39.1482 8.94975 25.8518 17.1508 17.6508C22.6994 12.1021 30.5807 10.3075 37.6381 12.2672C41.1274 13.1704 44.4297 14.9888 47.1614 17.7205C55.3239 25.883 55.3239 39.117 47.1614 47.2795ZM41.9008 34.7302C45.8595 30.7715 46.9047 25.0025 45.0363 20.088C51.7558 27.1389 51.653 38.3028 44.7279 45.2279C42.4551 47.5008 39.7256 49.0388 36.8348 49.8418C36.5943 49.9033 36.3528 49.9597 36.1104 50.0111C35.5354 50.1329 34.8029 49.6711 34.8068 48.7296L34.8435 39.9242C34.8465 39.2104 35.4312 38.4172 36.4712 38.0755C38.4579 37.4227 40.3247 36.3063 41.9008 34.7302ZM31.8069 48.7171C31.8043 49.3353 31.9348 49.9433 32.1749 50.4992C27.5102 50.5442 22.8313 48.7871 19.2721 45.2279C12.2426 38.1985 12.2426 26.8015 19.2721 19.7721C23.3503 15.6939 28.8986 13.9817 34.2112 14.6355C34.331 14.6843 34.4591 14.7183 34.5937 14.7349C35.147 14.8034 35.6977 14.8977 36.2439 15.0177C37.5284 15.5428 38.7333 16.327 39.7795 17.3732C42.4253 20.019 43.4072 23.6985 42.7253 27.1116C42.1639 25.9945 41.4172 24.9468 40.4853 24.0148C35.799 19.3285 28.201 19.3285 23.5147 24.0148C18.8284 28.7011 18.8284 36.2991 23.5147 40.9854C25.8136 43.2843 28.8142 44.4548 31.8244 44.4988L31.8069 48.7171ZM31.8369 41.4987C29.5863 41.4584 27.3516 40.5796 25.636 38.8641C22.1213 35.3494 22.1213 29.6509 25.636 26.1362C29.1508 22.6214 34.8492 22.6214 38.364 26.1362C39.809 27.5812 40.6593 29.3926 40.9164 31.2722C40.5796 31.7404 40.2006 32.1877 39.7795 32.6089C38.5433 33.8451 37.085 34.716 35.5348 35.2254C33.6492 35.845 31.8534 37.5459 31.8435 39.9117L31.8369 41.4987Z" fill="#FAFAFA"/>
</svg>
